<?xml version="1.0" encoding="UTF-8" standalone="no"?>
<svg
   xmlns:dc="http://purl.org/dc/elements/1.1/"
   xmlns:cc="http://creativecommons.org/ns#"
   xmlns:rdf="http://www.w3.org/1999/02/22-rdf-syntax-ns#"
   xmlns:svg="http://www.w3.org/2000/svg"
   xmlns="http://www.w3.org/2000/svg"
   viewBox="0 0 1066.6667 600"
   height="600"
   width="1066.6667"
   xml:space="preserve"
   id="svg2"
   version="1.1"><metadata
     id="metadata8"><rdf:RDF><cc:Work
         rdf:about=""><dc:format>image/svg+xml</dc:format><dc:type
           rdf:resource="http://purl.org/dc/dcmitype/StillImage" /></cc:Work></rdf:RDF></metadata><defs
     id="defs6"><clipPath
       id="clipPath20"
       clipPathUnits="userSpaceOnUse"><path
         id="path18"
         d="M 0,450 H 800 V 0 H 0 Z" /></clipPath></defs><g
     transform="matrix(1.3333333,0,0,-1.3333333,0,600)"
     id="g10"><path
       id="path12"
       style="fill:#ffffff;fill-opacity:1;fill-rule:nonzero;stroke:none"
       d="M 0,0 H 800 V 450 H 0 Z" /><g
       id="g14"><g
         clip-path="url(#clipPath20)"
         id="g16"><g
           transform="translate(123.63,131.4534)"
           id="g22"><path
             id="path24"
             style="fill:#c39c7e;fill-opacity:1;fill-rule:nonzero;stroke:none"
             d="m 0,0 c 1.127,0 1.69,-0.565 1.69,-1.69 v -7.532 c 0,-1.18 -0.563,-1.767 -1.69,-1.767 h -34.196 c -1.998,0 -3.65,-0.168 -4.957,-0.501 -1.306,-0.333 -2.344,-0.896 -3.111,-1.69 -0.769,-0.795 -1.321,-1.859 -1.653,-3.189 -0.334,-1.332 -0.499,-3.023 -0.499,-5.071 v -10.913 c 0,-2.05 0.165,-3.753 0.499,-5.11 0.332,-1.358 0.884,-2.434 1.653,-3.228 0.767,-0.795 1.805,-1.357 3.111,-1.691 1.307,-0.333 2.959,-0.498 4.957,-0.498 H 0 c 1.127,0 1.69,-0.565 1.69,-1.691 v -7.531 c 0,-1.128 -0.563,-1.691 -1.69,-1.691 h -34.657 c -3.895,0 -7.199,0.358 -9.914,1.076 -2.715,0.716 -4.93,1.883 -6.646,3.497 -1.717,1.614 -2.972,3.714 -3.766,6.3 -0.795,2.587 -1.191,5.726 -1.191,9.415 v 13.217 c 0,3.687 0.396,6.814 1.191,9.375 0.794,2.562 2.049,4.65 3.766,6.264 1.716,1.614 3.931,2.791 6.646,3.534 2.715,0.742 6.019,1.115 9.914,1.115 z" /></g><g
           transform="translate(170.9656,119.8499)"
           id="g26"><path
             id="path28"
             style="fill:#c39c7e;fill-opacity:1;fill-rule:nonzero;stroke:none"
             d="M 0,0 C 0.923,0 1.383,-0.461 1.383,-1.384 V -7.84 C 1.383,-8.761 0.923,-9.222 0,-9.222 h -20.441 c -1.639,0 -2.997,-0.143 -4.073,-0.422 -1.076,-0.284 -1.933,-0.745 -2.574,-1.384 -0.641,-0.642 -1.089,-1.513 -1.344,-2.614 -0.257,-1.1 -0.384,-2.445 -0.384,-4.035 v -22.822 c 0,-1.127 -0.565,-1.69 -1.692,-1.69 h -7.53 c -1.179,0 -1.767,0.563 -1.767,1.69 v 24.898 c 0,2.766 0.307,5.135 0.921,7.109 0.615,1.972 1.627,3.584 3.036,4.84 1.409,1.256 3.278,2.179 5.609,2.766 2.331,0.59 5.238,0.886 8.722,0.886 z" /></g><g
           transform="translate(232.1332,119.8499)"
           id="g30"><path
             id="path32"
             style="fill:#c39c7e;fill-opacity:1;fill-rule:nonzero;stroke:none"
             d="M 0,0 C 0.564,0 0.934,-0.192 1.114,-0.577 1.293,-0.962 1.255,-1.412 0.999,-1.922 l -29.508,-52.024 c -1.025,-1.794 -2.473,-3.111 -4.342,-3.958 -1.871,-0.846 -4.47,-1.268 -7.799,-1.268 h -5.38 c -0.922,0 -1.383,0.461 -1.383,1.384 v 6.3 c 0,0.923 0.461,1.385 1.383,1.385 h 4.534 c 1.946,0 3.253,0.59 3.919,1.767 l 4.15,7.299 c -1.281,0.102 -2.267,0.41 -2.959,0.923 -0.691,0.511 -1.345,1.306 -1.96,2.382 l -20.747,35.81 c -0.258,0.51 -0.297,0.96 -0.116,1.345 0.179,0.385 0.55,0.577 1.114,0.577 h 8.837 c 0.871,0 1.486,-0.36 1.845,-1.076 l 17.059,-29.586 c 0.41,-0.718 0.731,-1.192 0.962,-1.422 0.229,-0.232 0.524,-0.345 0.883,-0.345 l 18.058,31.353 C -10.093,-0.36 -9.479,0 -8.606,0 Z" /></g><g
           transform="translate(244.1229,86.8829)"
           id="g34"><path
             id="path36"
             style="fill:#c39c7e;fill-opacity:1;fill-rule:nonzero;stroke:none"
             d="m 0,0 h 27.74 c 1.691,0 3.074,0.126 4.15,0.383 1.076,0.256 1.933,0.718 2.575,1.384 0.639,0.664 1.087,1.537 1.345,2.613 0.255,1.076 0.384,2.431 0.384,4.072 v 6.838 c 0,1.59 -0.129,2.935 -0.384,4.035 -0.258,1.101 -0.706,1.972 -1.345,2.614 -0.642,0.639 -1.499,1.1 -2.575,1.384 -1.076,0.279 -2.459,0.422 -4.15,0.422 H 8.376 c -1.64,0 -2.997,-0.143 -4.073,-0.422 C 3.227,23.039 2.369,22.578 1.729,21.939 1.087,21.297 0.639,20.426 0.384,19.325 0.127,18.225 0,16.88 0,15.29 Z m 28.816,32.967 c 3.432,0 6.326,-0.296 8.684,-0.886 2.356,-0.587 4.239,-1.51 5.648,-2.766 1.409,-1.256 2.421,-2.868 3.035,-4.84 0.615,-1.974 0.923,-4.343 0.923,-7.109 V 6.3 c 0,-2.766 -0.308,-5.135 -0.923,-7.107 C 45.569,-2.781 44.557,-4.395 43.148,-5.649 41.739,-6.905 39.856,-7.813 37.5,-8.376 35.142,-8.941 32.248,-9.222 28.816,-9.222 H 0 v -15.293 c 0,-1.125 -0.565,-1.69 -1.692,-1.69 h -7.53 c -1.178,0 -1.767,0.565 -1.767,1.69 v 41.881 c 0,2.766 0.307,5.135 0.922,7.109 0.614,1.972 1.626,3.584 3.035,4.84 1.409,1.256 3.279,2.179 5.609,2.766 2.331,0.59 5.238,0.886 8.723,0.886 z" /></g><g
           transform="translate(302.3698,119.8499)"
           id="g38"><path
             id="path40"
             style="fill:#c39c7e;fill-opacity:1;fill-rule:nonzero;stroke:none"
             d="m 0,0 v 10.143 c 0,1.125 0.564,1.69 1.69,1.69 h 7.609 c 1.126,0 1.69,-0.565 1.69,-1.69 L 10.989,0 h 13.448 c 0.922,0 1.383,-0.461 1.383,-1.384 v -6.301 c 0,-0.923 -0.461,-1.384 -1.383,-1.384 H 10.989 v -17.827 c 0,-2.152 0.434,-3.729 1.307,-4.726 0.87,-1 2.586,-1.5 5.149,-1.5 h 7.454 c 0.921,0 1.383,-0.459 1.383,-1.382 v -6.301 c 0,-0.923 -0.462,-1.384 -1.383,-1.384 H 15.6 c -3.074,0 -5.609,0.281 -7.608,0.846 -1.998,0.563 -3.599,1.459 -4.802,2.688 -1.205,1.231 -2.038,2.818 -2.498,4.765 C 0.231,-31.943 0,-29.613 0,-26.896 v 17.827 h -7.3 c -0.923,0 -1.383,0.461 -1.383,1.384 v 6.301 C -8.683,-0.461 -8.223,0 -7.3,0 Z" /></g><g
           transform="translate(343.251,95.1055)"
           id="g42"><path
             id="path44"
             style="fill:#c39c7e;fill-opacity:1;fill-rule:nonzero;stroke:none"
             d="M 0,0 C 0,-1.641 0.127,-2.998 0.384,-4.074 0.64,-5.15 1.088,-6.009 1.729,-6.648 2.369,-7.29 3.228,-7.751 4.304,-8.03 5.379,-8.314 6.736,-8.455 8.376,-8.455 h 19.595 c 1.692,0 3.075,0.141 4.151,0.425 1.075,0.279 1.932,0.74 2.574,1.382 0.64,0.639 1.087,1.498 1.345,2.574 0.255,1.076 0.383,2.433 0.383,4.074 v 7.3 c 0,1.586 -0.128,2.919 -0.383,3.995 -0.258,1.076 -0.705,1.947 -1.345,2.613 -0.642,0.664 -1.499,1.126 -2.574,1.382 -1.076,0.257 -2.459,0.385 -4.151,0.385 H 8.376 C 6.736,15.675 5.379,15.547 4.304,15.29 3.228,15.034 2.369,14.572 1.729,13.908 1.088,13.242 0.64,12.371 0.384,11.295 0.127,10.219 0,8.886 0,7.3 Z m 29.047,24.744 c 3.433,0 6.327,-0.296 8.684,-0.886 2.356,-0.587 4.238,-1.51 5.648,-2.766 1.409,-1.256 2.42,-2.867 3.035,-4.839 0.616,-1.974 0.923,-4.343 0.923,-7.11 V -1.922 c 0,-2.767 -0.307,-5.136 -0.923,-7.108 -0.615,-1.974 -1.626,-3.588 -3.035,-4.841 -1.41,-1.256 -3.292,-2.165 -5.648,-2.727 -2.357,-0.565 -5.251,-0.847 -8.684,-0.847 H 7.3 c -3.485,0 -6.391,0.282 -8.721,0.847 -2.332,0.562 -4.202,1.471 -5.611,2.727 -1.409,1.253 -2.42,2.867 -3.035,4.841 -0.615,1.972 -0.922,4.341 -0.922,7.108 V 9.143 c 0,2.767 0.307,5.136 0.922,7.11 0.615,1.972 1.626,3.583 3.035,4.839 1.409,1.256 3.279,2.179 5.611,2.766 2.33,0.59 5.236,0.886 8.721,0.886 z" /></g><g
           transform="translate(453.5236,131.4534)"
           id="g46"><path
             id="path48"
             style="fill:#c39c7e;fill-opacity:1;fill-rule:nonzero;stroke:none"
             d="m 0,0 c 1.127,0 1.69,-0.565 1.69,-1.69 v -7.532 c 0,-1.18 -0.563,-1.767 -1.69,-1.767 h -34.196 c -1.998,0 -3.65,-0.168 -4.957,-0.501 -1.306,-0.333 -2.344,-0.896 -3.111,-1.69 -0.769,-0.795 -1.321,-1.859 -1.653,-3.189 -0.334,-1.332 -0.499,-3.023 -0.499,-5.071 v -10.913 c 0,-2.05 0.165,-3.753 0.499,-5.11 0.332,-1.358 0.884,-2.434 1.653,-3.228 0.767,-0.795 1.805,-1.357 3.111,-1.691 1.307,-0.333 2.959,-0.498 4.957,-0.498 H 0 c 1.127,0 1.69,-0.565 1.69,-1.691 v -7.531 c 0,-1.128 -0.563,-1.691 -1.69,-1.691 h -34.657 c -3.895,0 -7.199,0.358 -9.914,1.076 -2.715,0.716 -4.93,1.883 -6.646,3.497 -1.717,1.614 -2.972,3.714 -3.766,6.3 -0.795,2.587 -1.191,5.726 -1.191,9.415 v 13.217 c 0,3.687 0.396,6.814 1.191,9.375 0.794,2.562 2.049,4.65 3.766,6.264 1.716,1.614 3.931,2.791 6.646,3.534 2.715,0.742 6.019,1.115 9.914,1.115 z" /></g><g
           transform="translate(500.4755,86.1129)"
           id="g50"><path
             id="path52"
             style="fill:#c39c7e;fill-opacity:1;fill-rule:nonzero;stroke:none"
             d="m 0,0 c 0.818,0 1.396,0.192 1.729,0.577 0.333,0.385 0.499,1.062 0.499,2.036 v 6.762 h -28.125 c -1.589,0 -2.703,-0.321 -3.342,-0.96 -0.642,-0.642 -0.962,-1.574 -0.962,-2.803 V 3.998 c 0,-1.385 0.32,-2.396 0.962,-3.036 C -28.6,0.321 -27.486,0 -25.897,0 Z m -5.073,33.737 c 3.433,0 6.328,-0.296 8.685,-0.886 2.355,-0.587 4.238,-1.51 5.647,-2.766 1.409,-1.256 2.421,-2.868 3.035,-4.84 0.616,-1.974 0.923,-4.343 0.923,-7.109 V -2.305 c 0,-1.229 -0.09,-2.241 -0.269,-3.035 -0.18,-0.795 -0.487,-1.422 -0.922,-1.883 -0.436,-0.462 -1.012,-0.782 -1.729,-0.96 -0.718,-0.18 -1.64,-0.269 -2.767,-0.269 h -36.578 c -2.255,0 -4.137,0.217 -5.648,0.654 -1.511,0.434 -2.728,1.088 -3.65,1.959 -0.922,0.869 -1.575,1.997 -1.959,3.381 -0.385,1.382 -0.577,3.023 -0.577,4.918 v 3.687 c 0,1.589 0.192,3.011 0.577,4.267 0.384,1.254 1.037,2.317 1.959,3.188 0.922,0.872 2.139,1.523 3.65,1.96 1.511,0.434 3.393,0.654 5.648,0.654 H 2.228 v 1.458 c 0,1.232 -0.128,2.28 -0.385,3.152 -0.256,0.871 -0.691,1.574 -1.305,2.112 -0.615,0.538 -1.461,0.935 -2.536,1.192 -1.076,0.257 -2.459,0.385 -4.15,0.385 h -32.121 c -0.922,0 -1.383,0.461 -1.383,1.382 v 6.456 c 0,0.922 0.461,1.384 1.383,1.384 z" /></g><g
           transform="translate(577.3196,119.8499)"
           id="g54"><path
             id="path56"
             style="fill:#c39c7e;fill-opacity:1;fill-rule:nonzero;stroke:none"
             d="m 0,0 c 3.431,0 6.313,-0.296 8.645,-0.886 2.33,-0.587 4.213,-1.51 5.647,-2.766 1.434,-1.256 2.447,-2.868 3.037,-4.84 0.587,-1.974 0.883,-4.343 0.883,-7.109 v -24.898 c 0,-1.127 -0.565,-1.69 -1.69,-1.69 H 8.99 c -1.128,0 -1.69,0.563 -1.69,1.69 v 22.287 c 0,1.587 -0.104,2.932 -0.308,4.032 -0.204,1.101 -0.589,1.972 -1.152,2.614 -0.565,0.639 -1.359,1.1 -2.383,1.384 -1.025,0.279 -2.381,0.422 -4.073,0.422 H -14.14 v -30.739 c 0,-1.127 -0.589,-1.69 -1.767,-1.69 h -7.531 c -1.127,0 -1.691,0.563 -1.691,1.69 V -9.76 h -13.064 c -1.639,0 -2.997,-0.143 -4.073,-0.422 -1.076,-0.284 -1.933,-0.745 -2.574,-1.384 -0.641,-0.642 -1.089,-1.513 -1.344,-2.614 -0.257,-1.1 -0.384,-2.445 -0.384,-4.032 v -22.287 c 0,-1.127 -0.565,-1.69 -1.692,-1.69 h -7.53 c -1.179,0 -1.767,0.563 -1.767,1.69 v 24.898 c 0,2.766 0.307,5.135 0.922,7.109 0.614,1.972 1.626,3.584 3.035,4.84 1.409,1.256 3.278,2.179 5.609,2.766 2.331,0.59 5.238,0.886 8.723,0.886 z" /></g><g
           transform="translate(612.3596,102.4052)"
           id="g58"><path
             id="path60"
             style="fill:#c39c7e;fill-opacity:1;fill-rule:nonzero;stroke:none"
             d="m 0,0 h 31.122 c 0.87,0 1.307,0.434 1.307,1.305 v 3.228 c 0,1.587 -0.334,2.715 -0.999,3.381 -0.667,0.666 -1.896,1 -3.688,1 H 8.453 C 5.122,8.914 2.881,8.388 1.729,7.339 0.576,6.288 0,4.533 0,2.075 Z m 29.893,17.445 c 2.613,0 4.777,-0.22 6.493,-0.654 1.716,-0.437 3.074,-1.153 4.073,-2.152 0.998,-1 1.703,-2.305 2.114,-3.919 0.408,-1.614 0.614,-3.573 0.614,-5.878 V -2.46 c 0,-1.639 -0.359,-2.779 -1.076,-3.418 -0.718,-0.642 -1.818,-0.963 -3.304,-0.963 L 0,-6.841 v -1.843 c 0,-2.409 0.576,-4.148 1.729,-5.224 1.152,-1.076 3.393,-1.614 6.724,-1.614 h 32.044 c 0.922,0 1.384,-0.462 1.384,-1.385 v -6.453 c 0,-0.923 -0.462,-1.384 -1.384,-1.384 H 7.377 c -3.484,0 -6.391,0.281 -8.722,0.846 -2.332,0.563 -4.201,1.471 -5.609,2.727 -1.411,1.254 -2.421,2.868 -3.036,4.842 -0.614,1.971 -0.923,4.341 -0.923,7.107 V 1.843 c 0,2.767 0.309,5.136 0.923,7.11 0.615,1.972 1.625,3.583 3.036,4.839 1.408,1.257 3.277,2.179 5.609,2.767 2.331,0.59 5.238,0.886 8.722,0.886 z" /></g><g
           transform="translate(671.1458,135.2957)"
           id="g62"><path
             id="path64"
             style="fill:#c39c7e;fill-opacity:1;fill-rule:nonzero;stroke:none"
             d="m 0,0 c 1.127,0 1.69,-0.565 1.69,-1.69 v -54.255 c 0,-1.127 -0.563,-1.69 -1.69,-1.69 h -7.53 c -1.128,0 -1.691,0.563 -1.691,1.69 V -1.69 c 0,1.125 0.563,1.69 1.691,1.69 z" /></g><g
           transform="translate(729.3162,119.8499)"
           id="g66"><path
             id="path68"
             style="fill:#c39c7e;fill-opacity:1;fill-rule:nonzero;stroke:none"
             d="M 0,0 C 0.922,0 1.383,-0.461 1.383,-1.384 V -7.532 C 1.383,-8.455 0.922,-8.916 0,-8.916 h -34.657 c -1.588,0 -2.689,-0.294 -3.305,-0.884 -0.614,-0.589 -0.921,-1.448 -0.921,-2.573 v -1.153 c 0,-1.026 0.307,-1.831 0.921,-2.421 0.616,-0.59 1.717,-0.883 3.305,-0.883 h 25.896 c 4.304,0 7.378,-0.896 9.222,-2.69 1.844,-1.794 2.767,-4.329 2.767,-7.608 v -4.302 c 0,-1.692 -0.206,-3.203 -0.615,-4.535 -0.41,-1.333 -1.089,-2.458 -2.037,-3.381 -0.949,-0.923 -2.19,-1.627 -3.726,-2.113 -1.537,-0.488 -3.433,-0.73 -5.687,-0.73 h -39.345 c -0.922,0 -1.383,0.461 -1.383,1.384 v 6.148 c 0,0.92 0.461,1.382 1.383,1.382 h 36.424 c 1.588,0 2.703,0.281 3.344,0.846 0.639,0.563 0.96,1.51 0.96,2.843 v 2.075 c 0,1.024 -0.321,1.817 -0.96,2.382 -0.641,0.562 -1.756,0.844 -3.344,0.844 h -25.819 c -4.304,0 -7.377,0.886 -9.222,2.652 -1.843,1.767 -2.766,4.341 -2.766,7.722 v 3.381 c 0,1.589 0.205,3.035 0.614,4.343 0.41,1.306 1.089,2.421 2.037,3.342 0.948,0.923 2.19,1.626 3.727,2.115 1.537,0.486 3.432,0.73 5.687,0.73 z" /></g><g
           transform="translate(440.2265,257.6595)"
           id="g70"><path
             id="path72"
             style="fill:#c39c7e;fill-opacity:1;fill-rule:nonzero;stroke:none"
             d="m 0,0 c -0.008,-0.173 -0.978,-17.595 -16.625,-33.31 l -1.888,-1.896 3.562,-52.291 H 9.828 v 2.375 c 0,5.206 -4.22,9.426 -9.425,9.426 h -4.329 l -2.454,36.019 c 17.028,18.392 18.129,38.273 18.169,39.139 z" /></g><g
           transform="translate(360.3292,181.9635)"
           id="g74"><path
             id="path76"
             style="fill:#c39c7e;fill-opacity:1;fill-rule:nonzero;stroke:none"
             d="M 0,0 H -5.539 L -21.522,39.451 C -3.837,58.122 0.051,80.386 0.214,81.372 l -11.637,1.953 c -0.037,-0.217 -3.909,-21.829 -21.103,-38.2 l -2.906,-2.77 21.942,-54.156 H 9.426 v 2.375 C 9.426,-4.22 5.206,0 0,0" /></g><g
           transform="translate(519.8792,377.6715)"
           id="g78"><path
             id="path80"
             style="fill:#c39c7e;fill-opacity:1;fill-rule:nonzero;stroke:none"
             d="m 0,0 c -6.373,6.477 -16.914,8.236 -31.378,5.234 -3.164,2.714 -8.87,6.438 -15.704,6.417 -3.273,-0.054 -7.85,-1.06 -12.367,-5.159 -1.489,0.121 -3.256,0.01 -5.103,-0.644 -2.372,-0.841 -5.657,-2.886 -7.842,-7.851 -3.44,-7.816 0.378,-14.015 4.279,-17.459 0.005,-4.296 -0.692,-13.176 -5.665,-19.077 -0.167,-0.089 -0.265,-0.136 -0.28,-0.163 -1.665,0.847 -4.669,6.809 -6.666,10.775 -0.982,1.948 -2.009,3.986 -3.116,6.043 l -2.018,3.743 -4.189,-0.73 c -1.386,-0.239 -33.775,-6.428 -49.305,-53.908 3.902,-1.182 7.734,-2.282 11.369,-3.242 9.756,29.425 26.237,40.116 34.675,43.76 0.716,-0.271 1.204,-0.455 1.92,-0.726 2.151,-4.271 4.147,-8.234 6.49,-11.32 -3.349,-0.457 -7.185,-0.318 -11.541,0.481 l -2.136,-11.605 c 13.37,-2.455 23.943,-0.204 31.43,6.69 12.661,11.664 10.773,32.064 10.687,32.926 l -0.369,2.985 -2.534,1.525 c -1.006,0.605 -3.238,2.261 -2.229,4.55 0.543,1.237 0.983,1.481 0.983,1.481 0.023,0.006 0.059,0.009 0.1,0.009 0.117,0.002 0.28,-0.013 0.292,-0.013 l 4.223,-2.168 3.023,3.662 c 2.943,3.569 5.277,3.619 6.045,3.634 3.793,0.169 8.071,-3.576 9.327,-4.969 l 2.362,-2.685 3.473,0.851 c 11.42,2.806 19.704,2.343 23.323,-1.292 2.23,-2.242 2.687,-5.678 2.637,-8.361 -22.889,-2.864 -27.854,-20.133 -33.549,-39.924 -1.59,-5.529 -3.234,-11.247 -5.385,-17.27 -8.991,-25.175 -45.477,-25.905 -45.834,-25.908 l -4.713,-0.043 -1.001,-4.606 c -0.048,-0.224 -4.374,-19.438 -17.095,-35.363 -0.354,0.79 -0.72,1.596 -1.103,2.431 -4.656,10.159 -11.69,25.509 -7.424,50.828 l -11.635,1.962 c -1.046,-6.201 -1.458,-11.874 -1.457,-17.11 -26.568,1.962 -39.4,14.103 -39.513,14.212 l -7.328,7.329 -2.562,-10.043 c -4.732,-18.547 -12.415,-33.403 -19.52,-44.232 1.031,9.736 0.472,21.038 -4.004,32.322 -10.76,27.122 -4.491,52.333 18.632,74.932 21.262,20.78 28.255,24.969 41.157,21.529 -9.479,-8.671 -24.65,-25.599 -35.198,-52.142 2.709,-1.014 6.554,-2.437 11.113,-4.076 14.63,36.502 39.062,53.267 39.306,53.431 l 9.511,6.305 -10.644,4.114 c -27.328,10.564 -37.023,5.15 -63.492,-20.722 -7.362,-7.194 -13.192,-14.744 -17.584,-22.558 -1.767,-2.219 -29.459,-38.032 -27.741,-91.081 -1.624,-2.473 -2.979,-6.563 -2.878,-13.417 0.245,-16.667 8.086,-22.304 8.086,-22.304 0,0 0.248,10.294 7.846,19.73 5.359,6.656 3.266,12.63 -1.263,16.354 -0.569,17.885 2.519,33.779 6.789,46.747 0.8,-6.98 2.558,-14.054 5.391,-21.194 8.672,-21.859 -0.799,-44.946 -2.946,-49.68 l -2.275,-2.01 21.076,-49.446 h 21.049 v 2.375 c 0,5.206 -4.22,9.426 -9.426,9.426 h -3.825 l -14.761,34.63 c 7.111,7.293 24.585,27.569 34.657,59.679 7.641,-4.763 21.254,-10.915 41.124,-12.065 1.744,-12.836 5.992,-22.154 9.01,-28.741 1.369,-2.985 3.242,-7.074 3.084,-8.273 h 0.001 l -10.933,-57.031 h 26.984 v 2.375 c 0,5.206 -4.22,9.426 -9.426,9.426 h -3.28 l 7.892,41.17 c 15.299,14.776 22.43,34.582 24.983,43.29 11.768,1.064 42.62,6.427 52.283,33.48 2.276,6.37 4.048,12.536 5.614,17.975 6.223,21.635 9.73,31.223 27.646,31.776 l 4.404,0.136 1.12,4.262 C 5.315,-23.025 8.868,-9.014 0,0" /></g><g
           transform="translate(352.0962,314.3094)"
           id="g82"><path
             id="path84"
             style="fill:#c39c7e;fill-opacity:1;fill-rule:nonzero;stroke:none"
             d="m 0,0 c 1.445,-0.511 2.929,-1.033 4.462,-1.566 1.606,4.157 5.047,12.318 9.09,17.399 L 9.857,18.772 C 5.344,13.099 1.675,4.366 0,0" /></g><g
           transform="translate(371.1626,329.8926)"
           id="g86"><path
             id="path88"
             style="fill:#c39c7e;fill-opacity:1;fill-rule:nonzero;stroke:none"
             d="m 0,0 c -4.515,-5.677 -8.188,-14.42 -9.862,-18.782 1.474,-0.502 2.97,-1.007 4.484,-1.511 1.613,4.171 5.045,12.291 9.073,17.354 z" /></g><g
           transform="translate(380.1476,326.8406)"
           id="g90"><path
             id="path92"
             style="fill:#c39c7e;fill-opacity:1;fill-rule:nonzero;stroke:none"
             d="m 0,0 c -4.5,-5.657 -8.161,-14.354 -9.843,-18.732 1.499,-0.488 3.002,-0.97 4.508,-1.446 1.63,4.2 5.032,12.214 9.03,17.239 z" /></g></g></g></g></svg>