<svg width="1136" height="600" viewBox="0 0 1136 600" fill="none" xmlns="http://www.w3.org/2000/svg">
<path d="M644.768 354.368L618.668 303.068C639.368 297.368 651.068 281.468 651.068 262.268C651.068 235.568 629.168 220.568 596.468 220.568H572.768H532.268H525.068V225.368H525.668C534.968 225.368 538.268 229.268 538.268 240.068V359.868C538.268 370.668 534.968 373.968 525.668 373.968H525.068V378.468H531.968H569.768H576.668V373.968H576.068C566.768 373.968 563.468 370.668 563.468 359.868V305.468H591.368L623.168 366.668C627.068 373.868 634.268 378.368 642.668 378.368H669.068V373.968C659.768 373.668 654.068 372.068 644.768 354.368ZM596.468 298.268H563.468V227.768H594.368C616.868 227.768 624.068 240.368 624.068 263.168C624.068 287.168 616.868 298.268 596.468 298.268Z" fill="#F9F4EE"/>
<path d="M776.768 368.168C772.868 368.168 770.768 365.768 770.768 359.768V288.068C770.768 271.268 763.568 262.868 740.468 262.868C715.268 262.868 684.668 276.068 684.668 289.268C684.668 294.368 688.868 297.968 693.368 297.968C698.168 297.968 701.168 294.368 705.068 288.368C714.368 274.868 725.168 270.068 736.568 270.068C744.968 270.068 747.368 274.268 747.368 284.468V297.668L717.368 310.268C697.568 318.068 681.068 330.068 681.068 350.468C681.068 368.768 692.768 380.168 711.668 380.168C726.068 380.168 739.268 372.668 747.968 365.468C749.468 374.168 755.168 380.168 765.668 380.168C778.568 380.168 786.668 371.468 790.268 362.468L786.068 360.668C783.968 365.168 780.668 368.168 776.768 368.168ZM747.368 359.168C738.068 366.968 728.468 371.468 720.368 371.468C710.468 371.468 706.268 362.768 706.268 348.068C706.268 330.368 709.268 319.868 726.068 313.268L747.668 304.268V359.168H747.368Z" fill="#F9F4EE"/>
<path d="M826.267 249.068C834.067 249.068 840.667 243.368 840.667 234.668C840.667 225.968 834.067 220.268 826.267 220.268C818.467 220.268 811.867 225.968 811.867 234.668C811.867 243.368 818.467 249.068 826.267 249.068Z" fill="#F9F4EE"/>
<path d="M838.268 360.168V262.068H833.768C830.468 268.068 816.968 271.668 806.168 271.668H801.668V276.168H802.268C812.768 276.168 814.568 280.668 814.568 290.268V359.868C814.568 369.468 812.768 373.968 802.268 373.968H801.668V378.468H807.368H845.168H850.868V373.968H850.268C840.068 374.268 838.268 369.468 838.268 360.168Z" fill="#F9F4EE"/>
<path d="M985.668 373.968C975.468 373.968 973.368 369.468 973.368 359.868V280.068C973.368 267.768 967.668 262.968 958.068 262.968C950.268 262.968 941.268 265.968 930.468 270.168L904.668 279.768V262.068H900.168C896.868 268.068 883.368 271.668 872.568 271.668H868.068V276.168H868.668C879.168 276.168 880.968 280.668 880.968 290.268V359.868C880.968 369.468 879.168 373.968 868.668 373.968H868.068V378.468H873.768H911.568H917.268V373.968H916.668C906.468 373.968 904.668 369.468 904.668 359.868V286.968L924.468 279.168C932.868 276.168 937.368 274.668 941.568 274.668C946.668 274.668 949.368 277.968 949.368 285.168V359.868C949.368 369.468 947.268 373.968 937.068 373.968H936.768V378.468H942.168H980.268H985.968V373.968H985.668V373.968Z" fill="#F9F4EE"/>
<path d="M450.068 356.768C449.468 336.068 441.368 315.668 427.868 300.068C442.868 283.268 450.968 260.468 450.068 237.968C434.768 221.468 412.868 211.268 390.368 209.768C373.268 208.568 355.868 212.468 340.868 220.568C337.268 222.668 333.668 225.068 330.068 227.468C327.668 210.068 320.168 193.868 308.468 180.668C321.968 169.268 339.368 162.668 357.368 162.068C366.968 171.968 373.568 184.568 376.868 198.068C380.768 197.768 384.968 197.768 389.168 197.768C386.768 185.468 381.368 173.468 374.168 163.268C370.868 158.468 366.968 153.968 362.768 150.068C339.668 149.468 316.868 157.568 300.068 172.268C283.268 157.268 260.468 149.168 237.968 150.068C221.468 165.368 211.268 187.268 209.768 209.768C208.568 226.868 212.468 244.268 220.568 259.268C222.668 262.868 225.068 266.468 227.468 270.068C210.068 272.468 193.868 279.968 180.668 291.668C169.268 278.168 162.668 260.768 162.068 243.068C171.968 233.468 184.568 226.868 198.068 223.568C197.768 219.668 197.768 215.468 197.768 211.268C185.468 213.668 173.468 219.068 163.268 226.268C158.468 229.568 153.968 233.468 150.068 237.668C149.468 260.468 157.568 283.268 172.268 300.068C157.268 316.868 149.168 339.668 150.068 362.168C165.368 378.668 187.268 388.868 209.768 390.368C226.868 391.568 244.268 387.668 259.268 379.568C262.868 377.468 266.468 375.068 270.068 372.668C272.468 390.068 279.968 406.268 291.668 419.468C278.168 430.868 260.768 437.468 243.068 438.068C233.468 428.168 226.868 415.568 223.568 402.068C219.668 402.368 215.468 402.368 211.268 402.368C213.668 414.668 219.068 426.668 226.268 436.868C229.568 441.668 233.468 446.168 237.668 450.068C260.168 450.668 282.968 442.868 299.768 427.868C316.568 442.868 339.368 450.968 361.868 450.068C378.368 434.768 388.568 412.868 390.068 390.368C391.268 373.268 387.368 355.868 379.268 340.868C377.168 337.268 374.768 333.668 372.368 330.068C389.768 327.668 405.968 320.168 419.168 308.468C430.868 321.968 437.468 339.368 438.068 357.068C428.168 366.668 415.568 373.268 402.068 376.568C402.368 380.468 402.368 384.668 402.368 388.868C414.668 386.468 426.668 381.068 436.868 373.868C441.668 370.568 446.168 366.668 450.068 362.468C450.068 360.368 450.068 358.568 450.068 356.768ZM367.568 256.268C364.868 260.768 361.568 265.268 357.968 269.168C352.868 274.868 346.868 279.668 340.268 283.568C333.968 287.468 327.068 290.168 319.868 291.968C315.068 292.868 310.568 294.068 306.068 294.068C305.768 289.568 306.968 285.068 307.868 280.868C309.668 273.668 312.668 266.768 316.268 260.468C320.168 253.868 324.968 247.868 330.668 242.768C343.568 230.768 360.668 223.268 378.068 222.068C377.468 233.768 373.868 245.768 367.568 256.268ZM337.568 315.368C338.468 315.668 339.068 316.268 339.968 316.868C346.568 320.768 352.568 325.568 357.668 331.268C369.668 344.168 377.168 361.268 378.368 378.668C366.368 377.768 354.368 373.868 343.868 367.868C339.368 365.168 334.868 361.868 330.968 357.968C325.268 352.868 320.468 346.868 316.568 340.268C312.668 333.968 309.968 327.068 308.168 319.868C307.268 315.068 306.068 310.568 306.068 306.068C310.568 305.768 315.068 306.968 319.268 307.868C325.868 309.668 331.868 312.068 337.568 315.368ZM289.568 327.368C287.768 331.868 285.968 336.068 283.568 340.268C279.668 346.868 274.868 352.868 269.168 357.968C256.268 369.968 239.168 377.468 221.768 378.668C222.668 366.668 226.568 354.668 232.568 344.168C235.268 339.668 238.568 335.168 242.468 331.268C247.568 325.568 253.568 320.768 260.168 316.868C266.468 312.968 273.368 310.268 280.568 308.468C285.068 307.268 289.568 306.068 294.068 306.068C294.368 310.568 293.168 315.068 292.268 319.268C291.368 321.968 290.468 324.668 289.568 327.368ZM262.568 284.768C261.668 284.468 261.068 283.868 260.168 283.268C253.568 279.368 247.568 274.568 242.468 268.868C230.468 255.968 222.968 238.868 221.768 221.468C233.768 222.368 245.768 226.268 256.268 232.268C260.768 234.968 265.268 238.268 269.168 242.168C274.868 247.268 279.668 253.268 283.568 259.868C287.468 266.168 290.168 273.068 291.968 280.268C292.868 285.068 294.068 289.568 294.068 294.068C289.568 294.368 285.068 293.168 280.868 292.268C274.268 290.468 268.268 288.068 262.568 284.768ZM222.068 205.868C224.168 189.368 231.668 174.068 242.768 162.068C282.968 162.368 318.068 197.168 318.968 237.368C310.868 245.768 304.268 255.968 300.068 266.768C288.068 235.868 258.068 213.068 225.068 210.068C223.868 210.068 222.668 209.768 221.768 209.768C221.768 208.268 222.068 207.068 222.068 205.868ZM209.768 378.368C192.068 377.168 174.968 369.368 162.068 357.368C162.368 317.168 197.168 282.068 237.368 281.168C245.768 289.268 255.968 295.868 266.768 300.068C234.668 312.368 211.568 344.168 209.768 378.368ZM378.068 394.268C375.968 410.768 368.468 426.068 357.368 438.068C317.168 437.768 282.068 402.968 281.168 362.768C289.268 354.368 295.868 344.168 300.068 333.368C312.368 365.468 344.168 388.568 378.368 390.368C378.368 391.868 378.068 393.068 378.068 394.268ZM425.468 283.268C411.968 304.268 387.968 318.068 362.768 318.968C354.368 310.868 344.168 304.268 333.368 300.068C365.468 287.768 388.568 255.968 390.368 221.768C408.068 222.968 425.168 230.768 438.068 243.068C437.768 257.168 433.268 271.268 425.468 283.268Z" fill="#E57B73"/>
</svg>
